<svg width="300" height="300" viewBox="0 0 300 300" fill="none" xmlns="http://www.w3.org/2000/svg">
<rect x="56.25" y="37.5" width="187.5" height="93.75" fill="white"/>
<path d="M274.999 0H25.0008C11.192 0 0 11.1914 0 25.0014V274.995C0 288.803 11.192 299.995 25.0008 299.995H274.999C288.808 299.995 300 288.803 300 274.995V25.0014C300 11.1914 288.808 0 274.999 0ZM213.498 112.426H175.24L181.925 72.4881L175.719 71.2283L169.508 69.9586L159.288 112.426H86.502L70.0072 64.4361C93.3668 50.3584 120.737 42.2479 150.005 42.2479C179.268 42.2479 206.633 50.3584 229.993 64.4361L213.498 112.426Z" fill="black"/>
<path d="M65.9912 134.143C70.6909 134.143 75.116 134.555 79.2664 135.379C83.4167 136.203 87.0483 137.347 90.1611 138.812C93.2739 140.277 95.7306 142.047 97.5311 144.122C99.3317 146.167 100.232 148.425 100.232 150.897V187.335C100.232 189.807 99.3317 192.081 97.5311 194.156C95.7306 196.201 93.2739 197.955 90.1611 199.42C87.0483 200.885 83.4167 202.029 79.2664 202.853C75.116 203.677 70.6909 204.089 65.9912 204.089C63.3667 204.089 60.6812 203.998 57.9346 203.815C55.188 203.601 52.5177 203.342 49.9237 203.036C47.3602 202.701 44.9493 202.319 42.691 201.892C40.4327 201.465 38.4949 201.007 36.8774 200.519V137.714C38.4949 137.225 40.4327 136.768 42.691 136.34C44.9493 135.913 47.3602 135.547 49.9237 135.242C52.5177 134.906 55.188 134.647 57.9346 134.464C60.6812 134.25 63.3667 134.143 65.9912 134.143ZM66.1743 144.489C63.3972 144.489 60.9863 144.58 58.9417 144.763C56.897 144.916 55.1422 145.129 53.6774 145.404C52.2125 145.648 50.9918 145.923 50.0153 146.228C49.0692 146.503 48.291 146.747 47.6807 146.96V191.272C48.291 191.516 49.0692 191.776 50.0153 192.05C50.9918 192.325 52.2125 192.599 53.6774 192.874C55.1422 193.118 56.897 193.332 58.9417 193.515C60.9863 193.668 63.3972 193.744 66.1743 193.744C69.5923 193.744 72.6593 193.469 75.3754 192.92C78.1219 192.371 80.426 191.638 82.2876 190.723C84.1797 189.807 85.6293 188.754 86.6364 187.564C87.6434 186.343 88.147 185.077 88.147 183.765V154.468C88.147 153.156 87.6434 151.904 86.6364 150.714C85.6293 149.493 84.1797 148.425 82.2876 147.51C80.426 146.594 78.1219 145.862 75.3754 145.312C72.6593 144.763 69.5923 144.489 66.1743 144.489Z" fill="white"/>
<path d="M144.727 133.044C147.778 133.044 150.739 133.228 153.607 133.594C156.476 133.96 159.161 134.494 161.664 135.196C164.166 135.867 166.455 136.691 168.53 137.668C170.605 138.614 172.375 139.697 173.84 140.918C175.305 142.139 176.45 143.481 177.274 144.946C178.098 146.381 178.51 147.906 178.51 149.524V188.8C178.51 190.417 178.098 191.959 177.274 193.423C176.45 194.858 175.305 196.185 173.84 197.406C172.375 198.627 170.605 199.725 168.53 200.702C166.455 201.648 164.166 202.472 161.664 203.174C159.161 203.845 156.476 204.364 153.607 204.73C150.739 205.096 147.778 205.28 144.727 205.28C141.675 205.28 138.715 205.096 135.846 204.73C133.008 204.364 130.338 203.845 127.835 203.174C125.363 202.472 123.09 201.648 121.014 200.702C118.939 199.725 117.154 198.627 115.659 197.406C114.194 196.185 113.049 194.858 112.225 193.423C111.432 191.959 111.035 190.417 111.035 188.8V149.524C111.035 147.906 111.432 146.381 112.225 144.946C113.049 143.481 114.194 142.139 115.659 140.918C117.154 139.697 118.939 138.614 121.014 137.668C123.09 136.691 125.363 135.867 127.835 135.196C130.338 134.494 133.008 133.96 135.846 133.594C138.715 133.228 141.675 133.044 144.727 133.044ZM166.516 153.003C166.516 151.691 166.013 150.455 165.005 149.295C163.998 148.105 162.549 147.067 160.657 146.182C158.795 145.267 156.522 144.55 153.836 144.031C151.151 143.481 148.114 143.207 144.727 143.207C141.461 143.207 138.501 143.466 135.846 143.985C133.191 144.473 130.902 145.16 128.979 146.045C127.087 146.93 125.623 147.968 124.585 149.158C123.547 150.348 123.029 151.63 123.029 153.003V185.321C123.029 186.664 123.547 187.93 124.585 189.12C125.623 190.311 127.087 191.348 128.979 192.233C130.902 193.118 133.191 193.82 135.846 194.339C138.501 194.858 141.461 195.117 144.727 195.117C148.114 195.117 151.151 194.858 153.836 194.339C156.522 193.79 158.795 193.057 160.657 192.142C162.549 191.226 163.998 190.189 165.005 189.029C166.013 187.839 166.516 186.603 166.516 185.321V153.003Z" fill="white"/>
<path d="M235.181 171.222L259.076 134.601C261.67 134.753 264.127 134.952 266.446 135.196C268.765 135.41 270.795 135.638 272.534 135.883C274.579 136.157 276.471 136.432 278.21 136.707V147.235L269.696 145.312V192.554L278.21 190.631V201.984C274.976 202.625 271.786 203.098 268.643 203.403C265.5 203.708 262.311 203.937 259.076 204.089V153.827L235.181 190.906L210.919 153.735V204.089C208.325 203.937 205.869 203.754 203.549 203.54C201.23 203.326 199.2 203.098 197.461 202.853C195.416 202.579 193.524 202.289 191.785 201.984V190.631L200.299 192.554V145.221L191.785 147.144V136.615C193.524 136.34 195.416 136.066 197.461 135.791C199.2 135.547 201.23 135.318 203.549 135.104C205.869 134.86 208.325 134.662 210.919 134.509L235.181 171.222Z" fill="white"/>
</svg>
